<svg width="15" height="14" viewBox="0 0 15 14" fill="none" xmlns="http://www.w3.org/2000/svg">
	<g filter="url(#filter0_d)" style="transform: translate(-12px, -8px)">
		<path d="M13.5603 17.5433V21.2922C13.5624 21.4806 13.6388 21.6607 13.7729 21.7932C13.907 21.9257 14.0881 22 14.2768 22H18.6533V17.5433H13.5603ZM19.9304 22H24.3069C24.4956 22 24.6766 21.9257 24.8108 21.7932C24.9449 21.6607 25.0213 21.4806 25.0233 21.2922V17.5433H19.9304V22ZM25.5996 11.1811H24.1667C24.3135 10.8834 24.3907 10.5563 24.3926 10.2244C24.3905 9.63377 24.1541 9.06799 23.7352 8.65105C23.3163 8.23411 22.749 8 22.1576 8C21.5398 8.02926 20.9428 8.23248 20.4358 8.58618C19.9287 8.93989 19.5321 9.42964 19.2918 9.99889C19.0516 9.42964 18.655 8.93989 18.1479 8.58618C17.6408 8.23248 17.0439 8.02926 16.4261 8C15.8347 8 15.2674 8.23411 14.8485 8.65105C14.4295 9.06799 14.1932 9.63377 14.1911 10.2244C14.193 10.5563 14.2702 10.8834 14.4169 11.1811H12.9841C12.5947 11.1811 12.2832 11.64 12.2832 12.2V15.2567C12.2832 15.8167 12.5947 16.2756 12.9841 16.2756H18.6533V11.1811H19.9304V16.2756H25.5996C25.989 16.2756 26.3005 15.8167 26.3005 15.2567V12.2C26.3005 11.64 25.989 11.1811 25.5996 11.1811ZM16.4261 11.1811C16.2936 11.1931 16.16 11.1773 16.0339 11.1349C15.9078 11.0925 15.792 11.0242 15.6937 10.9346C15.5955 10.845 15.517 10.7359 15.4634 10.6143C15.4097 10.4927 15.382 10.3612 15.382 10.2283C15.382 10.0954 15.4097 9.964 15.4634 9.8424C15.517 9.7208 15.5955 9.6117 15.6937 9.52206C15.792 9.43242 15.9078 9.3642 16.0339 9.32176C16.16 9.27932 16.2936 9.26358 16.4261 9.27556C17.5163 9.27556 18.1315 10.3956 18.4352 11.1811H16.4261ZM22.1576 11.1811H20.1485C20.4522 10.4033 21.0674 9.27556 22.1576 9.27556C22.2901 9.26358 22.4237 9.27932 22.5498 9.32176C22.6759 9.3642 22.7917 9.43242 22.8899 9.52206C22.9882 9.6117 23.0666 9.7208 23.1203 9.8424C23.174 9.964 23.2017 10.0954 23.2017 10.2283C23.2017 10.3612 23.174 10.4927 23.1203 10.6143C23.0666 10.7359 22.9882 10.845 22.8899 10.9346C22.7917 11.0242 22.6759 11.0925 22.5498 11.1349C22.4237 11.1773 22.2901 11.1931 22.1576 11.1811Z" fill="#2695FF"/>
	</g>
	<defs>
		<filter id="filter0_d" x="0.283203" y="0" width="38.0173" height="38" filterUnits="userSpaceOnUse" color-interpolation-filters="sRGB">
			<feFlood flood-opacity="0" result="BackgroundImageFix"/>
			<feColorMatrix in="SourceAlpha" type="matrix" values="0 0 0 0 0 0 0 0 0 0 0 0 0 0 0 0 0 0 127 0"/>
			<feOffset dy="4"/>
			<feGaussianBlur stdDeviation="6"/>
			<feColorMatrix type="matrix" values="0 0 0 0 0.14902 0 0 0 0 0.584314 0 0 0 0 1 0 0 0 0.05 0"/>
			<feBlend mode="normal" in2="BackgroundImageFix" result="effect1_dropShadow"/>
			<feBlend mode="normal" in="SourceGraphic" in2="effect1_dropShadow" result="shape"/>
		</filter>
	</defs>
</svg>
