<svg width="11" height="15" viewBox="0 0 11 15" fill="none" xmlns="http://www.w3.org/2000/svg">
<path fill-rule="evenodd" clip-rule="evenodd" d="M1 1H1.99673C2.41934 2.31838 3.65515 3.27272 5.11386 3.27272C6.57257 3.27272 7.80838 2.31838 8.23099 1H9.22727V6.5H8.94886V7.5H9.22727V14H8.231C7.8084 12.6816 6.57258 11.7272 5.11386 11.7272C3.65514 11.7272 2.41931 12.6816 1.99672 14H1L1 7.5H1.27841L1.27841 6.5H1L1 1ZM0 6.5V1C0 0.447715 0.447715 0 1 0H2.84113C2.84113 1.25519 3.85867 2.27272 5.11386 2.27272C6.36905 2.27272 7.38658 1.25519 7.38659 0H9.22727C9.77956 0 10.2273 0.447715 10.2273 1V6.5V7.5V14C10.2273 14.5523 9.77956 15 9.22727 15H8.38659H7.38659V15C7.38659 13.7448 6.36905 12.7272 5.11386 12.7272C3.85867 12.7272 2.84113 13.7448 2.84113 15V15H1C0.447716 15 0 14.5523 0 14V7.5V6.5ZM3.83523 7.5H6.39205V6.5H3.83523V7.5Z" fill="white"/>
</svg>
