<svg width="15" height="15" viewBox="0 0 15 15" fill="none" xmlns="http://www.w3.org/2000/svg">
<circle cx="7.5" cy="7.5" r="7" stroke="white"/>
<circle cx="7.50036" cy="7.49999" r="1.36364" fill="white"/>
<path d="M7.5 3.40912L7.5 7.50003" stroke="white"/>
<path d="M7.5 7.5L7.5 10.9091" stroke="white"/>
<path d="M10.9082 7.5H7.49911" stroke="white"/>
<path d="M7.5 7.5H4.09091" stroke="white"/>
<path d="M8.52202 4.0909C8.52202 4.65574 8.06413 5.11363 7.49929 5.11363C6.93445 5.11363 6.47656 4.65574 6.47656 4.0909C6.47656 3.52607 6.93445 3.06818 7.49929 3.06818C8.06413 3.06818 8.52202 3.52607 8.52202 4.0909Z" fill="white"/>
<path d="M5.11381 7.49999C5.11381 8.06483 4.65592 8.52272 4.09109 8.52272C3.52625 8.52272 3.06836 8.06483 3.06836 7.49999C3.06836 6.93516 3.52625 6.47726 4.09109 6.47726C4.65592 6.47726 5.11381 6.93516 5.11381 7.49999Z" fill="white"/>
<path d="M11.9322 7.49999C11.9322 8.06483 11.4743 8.52272 10.9094 8.52272C10.3446 8.52272 9.88672 8.06483 9.88672 7.49999C9.88672 6.93516 10.3446 6.47726 10.9094 6.47726C11.4743 6.47726 11.9322 6.93516 11.9322 7.49999Z" fill="white"/>
<path d="M8.52202 10.9091C8.52202 11.4739 8.06413 11.9318 7.49929 11.9318C6.93445 11.9318 6.47656 11.4739 6.47656 10.9091C6.47656 10.3442 6.93445 9.88635 7.49929 9.88635C8.06413 9.88635 8.52202 10.3442 8.52202 10.9091Z" fill="white"/>
</svg>
