<svg width="10" height="14" viewBox="0 0 10 14" fill="none" xmlns="http://www.w3.org/2000/svg">
<g opacity="0.5">
<path d="M10 2.5C10 3.88071 8.88071 5 7.5 5C6.99046 5 6.51652 4.84756 6.1213 4.5858L3.72309 6.98402C3.89904 7.28177 4 7.6291 4 8C4 8.29205 3.9374 8.56948 3.82489 8.8196L5.80011 10.3998C6.13435 10.1487 6.54981 10 7 10C8.10457 10 9 10.8954 9 12C9 13.1046 8.10457 14 7 14C5.89543 14 5 13.1046 5 12C5 11.708 5.0626 11.4305 5.17511 11.1804L3.19989 9.60023C2.86565 9.85125 2.45019 10 2 10C0.895431 10 0 9.10457 0 8C0 6.89543 0.895431 6 2 6C2.3709 6 2.71823 6.10097 3.01598 6.27691L5.4142 3.8787C5.15244 3.48348 5 3.00954 5 2.5C5 1.11929 6.11929 0 7.5 0C8.88071 0 10 1.11929 10 2.5Z" fill="white"/>
</g>
</svg>
