<svg width="168" height="230" viewBox="0 0 168 230" fill="none" xmlns="http://www.w3.org/2000/svg">
<rect y="-3.05176e-05" width="168" height="230" rx="3" fill="#2C2F39"/>
<path d="M112.002 116.601C111.853 117.881 111.844 117.855 112.518 118.648C113.228 119.459 113.394 119.85 113.201 120.216C113.14 120.347 112.141 121.445 110.985 122.665C109.137 124.626 108.856 124.956 108.593 125.549C108.12 126.647 107.516 127.074 106.929 126.751C106.833 126.69 106.456 126.455 106.114 126.22C104.257 124.982 102.224 125.087 100.814 126.49C99.4122 127.884 97.7826 131.735 96.8631 135.822C96.3383 138.122 94.5511 143.35 93.8323 144.692C92.851 146.487 92.7547 146.565 91.5107 146.548C90.9854 146.53 88.699 145.842 88.4886 145.633C88.2869 145.432 88.0857 145.615 87.8845 146.199C87.7268 146.652 87.6039 146.826 87.3674 146.939C87.0608 147.087 87.0346 147.061 85.2914 145.711C83.4777 144.291 79.7548 141.093 78.1165 139.533C77.302 138.757 77.1966 138.618 77.2406 138.365C77.258 138.208 77.3543 138.008 77.4505 137.912C77.7397 137.624 77.7659 137.267 77.5381 136.919C76.9073 135.995 76.9073 136.012 77.8974 135.028C79.0273 133.904 79.229 133.407 79.1763 131.891L79.1327 130.785L80.1228 129.783C80.9726 128.92 81.1212 128.702 81.288 128.188C81.5419 127.36 81.5768 127.029 81.4635 126.097L81.376 125.295L82.3308 124.38C83.2594 123.491 83.2943 123.439 83.5922 122.567C83.9777 121.434 83.969 120.641 83.5748 119.918C83.0756 119.003 82.5499 118.568 81.5598 118.211L80.666 117.897L78.7912 116.015C76.6273 113.845 72.501 109.393 72.1503 108.853C72.0018 108.618 71.9491 108.356 72.0188 108.129C72.1068 107.798 72.2292 107.694 73.2803 107.031C74.2612 106.422 74.6732 106.082 75.8911 104.871C77.5821 103.189 77.687 102.997 77.4505 101.803C77.1966 100.505 76.8634 100.104 71.984 95.077C68.2606 91.2515 67.5859 90.5112 67.3058 89.9882C66.8855 89.169 66.8942 88.6899 67.3585 88.0885C67.5689 87.8273 67.9805 87.2437 68.278 86.7901C68.7336 86.1282 68.9614 85.8843 69.5133 85.5095L70.1876 85.0304L70.1702 84.5426C70.1441 84.0807 70.1702 84.0374 71.2217 82.8694C72.4479 81.5277 72.8072 81.2751 73.5521 81.3011C73.8413 81.3098 74.1562 81.24 74.2525 81.1443C74.4716 80.9264 74.7255 80.9528 75.1546 81.24C75.3384 81.3535 75.8206 81.5013 76.2235 81.571C77.082 81.7101 77.3538 81.9458 77.3098 82.512C77.292 82.7386 77.4061 83.1129 77.5551 83.3486C77.897 83.8975 107.157 113.418 108.76 114.838L109.952 115.886L110.714 115.877C111.511 115.868 112.045 116.173 112.002 116.601ZM80.8498 105.169C80.2544 104.925 79.4921 104.916 78.8609 105.143C78.3265 105.326 78.1692 105.448 77.2841 106.397C75.8476 107.931 75.6193 108.715 76.2505 110.022C76.4957 110.545 79.1767 113.717 80.3593 114.893C81.139 115.668 81.8486 116.008 82.6897 116.025C83.5739 116.051 83.793 115.921 85.1773 114.544L86.4562 113.272L85.6852 112.609L84.8441 113.045C83.1445 113.916 81.6992 113.942 80.7265 113.132L80.2182 112.696L81.6373 112.121C84.2656 111.075 85.6146 110.239 85.6234 109.69C85.6416 109.395 81.4191 105.404 80.8498 105.169Z" fill="#373A43"/>
<path d="M24.7111 84.5777L20.4472 93.1055C20.1657 93.6686 20.1657 94.3313 20.4472 94.8944L24.7111 103.422C25.4482 104.896 27.5518 104.896 28.2889 103.422L32.5528 94.8944C32.8343 94.3313 32.8343 93.6686 32.5528 93.1055L28.2889 84.5777C27.5518 83.1036 25.4482 83.1036 24.7111 84.5777Z" fill="#FFA741"/>
</svg>
