<svg width="168" height="230" viewBox="0 0 168 230" fill="none" xmlns="http://www.w3.org/2000/svg">
<rect width="168" height="230" rx="3" fill="#2C2F39"/>
<g clip-path="url(#clip0)">
<path d="M51.9281 77.8428L53.687 76.1176L56.1735 78.5701L60.1151 75.358L59.0697 81.6013L67.786 90.2156C69.7837 88.7691 71.0224 88.5378 71.0224 88.5378L86.5146 103.946L87.9371 103.72L88.914 102.756L76.9511 91.8784C78.4893 90.2908 81.5613 87.1146 81.5613 87.1146L92.1833 99.8035L92.6322 100.249L93.4877 99.3627L96.0106 101.874L95.1488 102.768L95.9291 103.541L98.5125 100.867L101.035 103.378L98.452 106.052L99.5443 107.139L100.41 106.245L102.933 108.757L102.072 109.646L102.152 109.733L112.33 118.584L108.35 122.698L99.0064 112.558C98.2924 113.298 97.7441 113.865 97.7441 113.865L104.176 120.247L102.468 121.947L102.894 127.472L108.005 135.101C108.005 135.101 118.438 144.202 123.057 148.381C121.052 151.09 117.368 154.278 114.677 156.615C114.677 156.615 98.689 130.633 90.6385 129.324L83.886 122.586C83.886 122.586 87.808 120.253 86.8858 119.31C78.3623 125.397 72.0675 123.745 72.0675 123.745C70.7346 120.841 71.0125 117.913 70.539 114.998C75.9467 114.917 75.8984 115.745 81.2879 112.353L64.101 95.254C64.0445 94.1144 66.0822 91.9167 66.0822 91.9167L51.9281 77.8428ZM85.9955 122.987L90.4194 127.392C90.4194 127.392 92.0572 125.763 92.9662 124.82L91.9883 123.865C91.1044 124.419 89.4226 125.191 88.2009 123.979L88.9307 123.229C89.5676 123.859 90.5573 123.493 91.2211 123.113L88.4836 120.416L85.9955 122.987Z" fill="#373A43"/>
</g>
<path fill-rule="evenodd" clip-rule="evenodd" d="M29.6 83.5769C34.9255 78.1025 48.2407 87.682 29.6 100C10.9592 87.6832 24.2744 78.1025 29.6 83.5769Z" fill="#FF4141"/>
<defs>
<clipPath id="clip0">
<rect width="85" height="85" fill="white" transform="matrix(-0.975104 -0.221749 -0.221749 0.975104 137.732 83.8487)"/>
</clipPath>
</defs>
</svg>
