<svg width="168" height="230" viewBox="0 0 168 230" fill="none" xmlns="http://www.w3.org/2000/svg">
<rect y="-3.05176e-05" width="168" height="230" rx="3" fill="#2C2F39"/>
<path d="M34.7171 90.8C30.9371 87.99 29.6333 85.7412 28.7496 84C27.8646 85.7412 26.5621 87.99 22.7821 90.8C16.3358 95.5912 22.4033 102.277 27.7383 98.5975C27.3908 100.881 26.2046 102.546 24.9996 103.264V104.001H32.4996V103.264C31.2946 102.546 30.1083 100.881 29.7608 98.5975C35.0958 102.277 41.1633 95.5912 34.7171 90.8Z" fill="#41A2FF"/>
<g clip-path="url(#clip0)">
<path d="M117.155 141.627C117.098 141.545 116.786 141.043 116.454 140.512C115.588 139.115 113.465 136.012 111.759 133.642C110.948 132.519 109.881 131.009 109.387 130.294C107.28 127.246 106.391 126.065 104.873 124.302C103.042 122.176 101.098 120.128 99.3705 118.5C98.3775 117.562 97.8237 116.903 97.3702 116.102C96.8828 115.24 96.8659 115.109 97.2311 114.565C97.3947 114.32 97.6051 113.934 97.7039 113.716C97.8754 113.346 97.8756 113.292 97.7495 112.994C97.5823 112.599 96.7667 111.845 96.4788 111.814C96.0681 111.782 95.3624 112.279 94.156 113.47C93.8806 113.739 93.6341 113.95 93.6064 113.939C93.5603 113.92 92.9769 113.282 90.9209 110.968C90.2034 110.157 89.0265 108.838 88.3026 108.03C87.5851 107.219 86.4137 105.913 85.711 105.118C85.0017 104.327 83.3692 102.491 82.0775 101.045C80.7858 99.5986 79.1533 97.7624 78.444 96.9708C77.7412 96.1764 76.9879 95.3348 76.7794 95.0947C76.0141 94.2429 74.6853 93.034 73.4293 92.0692C69.6081 89.121 68.5459 88.181 65.8651 85.3837C62.8856 82.2776 60.4992 79.5084 58.4239 76.7525C58.122 76.3459 57.8492 76.0261 57.8233 76.0371C57.642 76.1139 57.5661 77.612 57.6736 79.0019C57.7507 79.9237 57.9761 81.7906 58.0808 82.3265C58.107 82.4605 58.0918 82.5509 58.042 82.5415C57.9857 82.5348 57.9847 82.5505 58.0298 82.5848C58.0722 82.6127 58.1444 82.7654 58.1816 82.9253C58.2259 83.1203 58.2155 83.1858 58.152 83.1439C58.0949 83.0994 58.1094 83.1696 58.1973 83.3232C58.311 83.5195 58.3155 83.5481 58.2198 83.4665C58.1241 83.3848 58.1314 83.4199 58.2422 83.6097C58.3367 83.7606 58.3511 83.8308 58.2968 83.7927C58.1486 83.6951 58.6335 85.5438 59.0449 86.6599C59.4656 87.7799 60.2941 89.5747 60.713 90.2754C61.9567 92.3296 63.0843 93.7306 66.2499 97.132C69.0846 100.185 70.2921 101.468 72.5143 103.795C75.5433 106.964 77.6668 109.257 79.8753 111.75C81.1606 113.199 82.8573 115.115 83.6428 115.996C84.8867 117.401 85.1239 117.637 85.495 117.846C85.7326 117.975 86.0824 118.224 86.2764 118.394C86.6379 118.706 87.4433 119.671 87.5502 119.923C87.5996 120.04 87.49 120.178 86.8473 120.824C86.1046 121.559 84.8091 123.062 84.4568 123.6L84.283 123.857L84.4856 124.39C84.7166 124.971 85.0846 125.48 85.3344 125.565C85.8129 125.721 86.6905 125.197 87.7634 124.124C88.2076 123.677 88.7186 123.17 88.9068 122.984L89.2435 122.643L89.6582 122.811C90.4637 123.126 91.764 124.088 92.4613 124.869C92.6165 125.055 93.1295 125.762 93.5899 126.453C94.6264 127.999 94.7238 128.103 96.1609 129.442C98.3668 131.478 98.5589 131.679 99.9672 133.473C100.956 134.726 101.711 135.536 103.25 136.97C104.104 137.761 104.46 138.152 105.807 139.781C106.825 141.015 107 141.193 107.365 141.351C107.542 141.429 107.636 141.542 107.771 141.805C108.039 142.349 108.605 143.018 109.104 143.386C109.884 143.965 109.867 143.835 109.634 146.911C109.516 148.488 109.46 149.673 109.503 149.776C109.613 150.035 109.854 150.208 110.362 150.398C110.916 150.606 111.342 150.639 111.949 150.52C112.625 150.386 112.973 150.216 113.424 149.804C114.114 149.16 115.45 147.518 116.247 146.318C116.954 145.263 117.478 143.941 117.525 143.112C117.548 142.644 117.382 141.982 117.155 141.627ZM58.4232 84.2355C58.3956 84.2243 58.3644 84.1688 58.3646 84.1152C58.3621 84.0552 58.3898 84.0664 58.4199 84.1376C58.4566 84.2061 58.4536 84.2532 58.4232 84.2355Z" fill="#373A43"/>
<path d="M58.0382 82.8027C58.0379 82.8563 58.0691 82.9118 58.0967 82.923C58.1271 82.9407 58.1301 82.8936 58.0935 82.8251C58.0633 82.7539 58.0357 82.7427 58.0382 82.8027Z" fill="#373A43"/>
</g>
<defs>
<clipPath id="clip0">
<rect width="90" height="45" fill="white" transform="translate(90.4395 62) rotate(67.0546)"/>
</clipPath>
</defs>
</svg>
